<?xml version="1.0" encoding="utf-8"?>

<!DOCTYPE svg PUBLIC "-//W3C//DTD SVG 1.1//EN" "http://www.w3.org/Graphics/SVG/1.1/DTD/svg11.dtd">
<!-- Uploaded to: SVG Repo, www.svgrepo.com, Generator: SVG Repo Mixer Tools -->
<svg height="800px" width="800px" version="1.1" id="_x32_" xmlns="http://www.w3.org/2000/svg" xmlns:xlink="http://www.w3.org/1999/xlink" 
	 viewBox="0 0 512 512"  xml:space="preserve">
<style type="text/css">
	.st0{fill:#000000;}
</style>
<g>
	<path class="st0" d="M256,431.589c-22.207,0-40.21,17.994-40.21,40.202c0,22.207,18.003,40.21,40.21,40.21
		c22.206,0,40.209-18.003,40.209-40.21C296.209,449.583,278.206,431.589,256,431.589z"/>
	<path class="st0" d="M272.757,323.522h-33.564v88.605c5.368-1.507,10.989-2.343,16.782-2.343c5.786,0,11.407,0.836,16.782,2.343
		V323.522z"/>
	<path class="st0" d="M89.58,455.008v33.564h106.732c-1.508-5.367-2.352-10.989-2.352-16.782c0-5.793,0.844-11.415,2.352-16.782
		H89.58z"/>
	<path class="st0" d="M318.063,471.79c0,5.793-0.836,11.415-2.344,16.782h106.732v-33.564H315.72
		C317.227,460.375,318.063,465.997,318.063,471.79z"/>
	<path class="st0" d="M389.732,62.933c-15.545,0-30.36,3.09-43.955,8.554C325.479,29.238,282.41,0,232.4,0
		c-67.161,0-121.883,52.649-125.514,118.908c-3.982-0.533-8.014-0.91-12.152-0.91c-49.961,0-90.465,40.497-90.465,90.466
		c0,49.968,40.504,90.465,90.465,90.465h294.997c65.17,0,117.999-52.829,117.999-117.998
		C507.731,115.762,454.901,62.933,389.732,62.933z M256,242.438l-61.532-75.519h33.564v-61.531h55.943v61.531h33.564L256,242.438z"
		/>
</g>
</svg>